<svg width="22" height="22" viewBox="0 0 22 22" fill="none" xmlns="http://www.w3.org/2000/svg">
<path d="M7.7 0C3.46044 0 0 3.46044 0 7.7C0 11.9396 3.46044 15.4 7.7 15.4C9.6228 15.4 11.3795 14.6828 12.7316 13.5094L13.2 13.9777V15.4L19.8 22L22 19.8L15.4 13.2H13.9777L13.5094 12.7316C14.6828 11.3795 15.4 9.6228 15.4 7.7C15.4 3.46044 11.9396 0 7.7 0ZM7.7 2.2C10.7506 2.2 13.2 4.64941 13.2 7.7C13.2 10.7506 10.7506 13.2 7.7 13.2C4.64941 13.2 2.2 10.7506 2.2 7.7C2.2 4.64941 4.64941 2.2 7.7 2.2Z" fill="black"/>
</svg>
